<?xml version="1.0" standalone="no"?><!DOCTYPE svg PUBLIC "-//W3C//DTD SVG 1.1//EN" "http://www.w3.org/Graphics/SVG/1.1/DTD/svg11.dtd"><svg t="1553526098966" class="icon" style="" viewBox="0 0 1024 1024" version="1.1" xmlns="http://www.w3.org/2000/svg" p-id="5197" xmlns:xlink="http://www.w3.org/1999/xlink" width="200" height="200"><defs><style type="text/css"></style></defs><path d="M948.3 959.466H74.243c-36.773 0-66.628-29.855-66.628-66.628V288.692c0-36.773 29.855-66.628 66.628-66.628h874.055c36.773 0 66.628 29.855 66.628 66.628v604.145c0 36.894-29.855 66.628-66.628 66.628z" fill="#FFE5CF" p-id="5198"></path><path d="M1014.93 456.052v-167.36c0-36.773-29.855-66.628-66.628-66.628H74.243c-36.773 0-66.628 29.855-66.628 66.628v167.359h1007.31z" fill="#F75E5E" p-id="5199"></path><path d="M244.637 366.365h-9.466c-18.69 0-34.103-15.292-34.103-34.103V101.55c0-18.69 15.291-34.103 34.103-34.103h9.466c18.69 0 34.103 15.292 34.103 34.103v230.833c0 18.69-15.413 33.982-34.103 33.982z m542.856 0h-9.466c-18.69 0-34.103-15.292-34.103-34.103V101.55c0-18.69 15.291-34.103 34.103-34.103h9.466c18.69 0 34.103 15.292 34.103 34.103v230.833c-0.121 18.69-15.413 33.982-34.103 33.982z" fill="#FF8882" p-id="5200"></path><path d="M746.716 629.479c0-73.789-59.832-133.62-133.62-133.62-40.778 0-77.308 18.205-101.823 46.968-24.515-28.763-61.045-46.968-101.823-46.968-73.789 0-133.62 59.832-133.62 133.62 0 38.715 17.84 71.119 42.841 98.061l193.09 185.564 189.811-183.622c24.03-25 45.147-60.196 45.147-100.003z" fill="#F75E5E" p-id="5201"></path><path d="M443.916 758.245V622.683c-13.835 12.136-31.918 20.996-54.613 26.457v-16.505c26.457-12.622 44.661-30.341 54.613-52.915H472.8v178.525h-28.884z m138.839 0v-38.836h-85.197v-19.054l85.925-120.635h27.307v120.635h22.33v19.054h-22.33v38.836h-28.035z m0-139.689l-57.89 81.799h57.89v-81.799z" fill="#FFFFFF" p-id="5202"></path></svg>