<?xml version="1.0" standalone="no"?><!DOCTYPE svg PUBLIC "-//W3C//DTD SVG 1.1//EN" "http://www.w3.org/Graphics/SVG/1.1/DTD/svg11.dtd"><svg t="1553526008870" class="icon" style="" viewBox="0 0 1024 1024" version="1.1" xmlns="http://www.w3.org/2000/svg" p-id="11814" xmlns:xlink="http://www.w3.org/1999/xlink" width="200" height="200"><defs><style type="text/css"></style></defs><path d="M983.04 92.16H768V10.24a10.263273 10.263273 0 0 0-10.24-10.24h-71.68a10.263273 10.263273 0 0 0-10.24 10.24v81.92H348.16V10.24a10.263273 10.263273 0 0 0-10.24-10.24h-71.68a10.263273 10.263273 0 0 0-10.24 10.24v81.92H40.96C18.292364 92.16 0 110.475636 0 133.12v849.92C0 1005.707636 18.292364 1024 40.96 1024h942.08c22.667636 0 40.96-18.292364 40.96-40.96V133.12c0-22.644364-18.292364-40.96-40.96-40.96z m-51.2 839.68H92.16v-486.4h839.68v486.4zM92.16 358.4V184.32H256v61.44c0 5.632 4.608 10.24 10.24 10.24h71.68c5.632 0 10.24-4.608 10.24-10.24V184.32h327.68v61.44c0 5.632 4.608 10.24 10.24 10.24h71.68c5.632 0 10.24-4.608 10.24-10.24V184.32h163.84v174.08H92.16z m486.167273 174.452364V837.818182h-84.247273v-199.842909c-13.637818 10.356364-26.833455 18.757818-39.586909 25.157818-12.753455 6.423273-28.741818 12.567273-47.965091 18.408727V613.236364c28.369455-9.146182 50.385455-20.130909 66.071273-32.930909a134.353455 134.353455 0 0 0 36.817454-47.476364h68.933818z" p-id="11815"></path></svg>