<?xml version="1.0" standalone="no"?><!DOCTYPE svg PUBLIC "-//W3C//DTD SVG 1.1//EN" "http://www.w3.org/Graphics/SVG/1.1/DTD/svg11.dtd"><svg t="1553566213084" class="icon" style="" viewBox="0 0 1024 1024" version="1.1" xmlns="http://www.w3.org/2000/svg" p-id="27331" xmlns:xlink="http://www.w3.org/1999/xlink" width="200" height="200"><defs><style type="text/css"></style></defs><path d="M364.777 811.5h61.398V467.667h-45.68c-1.965 10.484-6.14 19.325-12.525 26.524-6.386 7.207-14.084 13.102-23.086 17.683-9.01 4.59-19.08 7.86-30.208 9.824-11.136 1.965-22.595 2.947-34.383 2.947v44.207h84.484v242.646z m273.1 0h61.4V467.667h-45.681c-1.965 10.484-6.14 19.325-12.525 26.524-6.386 7.207-14.084 13.102-23.087 17.683-9.01 4.59-19.08 7.86-30.208 9.824-11.137 1.965-22.595 2.947-34.383 2.947v44.207h84.484v242.646z" fill="" p-id="27332"></path><path d="M838.026 126.409H778.58V79.238c0-6.723-5.642-12.254-12.603-12.254h-34.219c-7.118 0-12.602 5.486-12.602 12.254v47.171H303.182V79.238c0-6.723-5.642-12.254-12.602-12.254h-34.22c-7.118 0-12.602 5.486-12.602 12.254v47.171h-59.446c-65.738 0-118.829 53.169-118.829 118.756v594.434c0 65.449 53.201 118.756 118.829 118.756h653.715c65.739 0 118.829-53.169 118.829-118.756V245.165c-0.001-65.449-53.203-118.756-118.83-118.756zM897.43 839.6c0 32.806-26.523 59.332-59.403 59.332H184.311c-32.757 0-59.403-26.652-59.403-59.332V364.108h772.521V839.6z m0-534.917H124.908v-59.518c0-32.806 26.523-59.332 59.403-59.332h59.446v47.172c0 6.723 5.642 12.254 12.602 12.254h34.22c7.118 0 12.602-5.486 12.602-12.254v-47.172h415.973v47.172c0 6.723 5.643 12.254 12.602 12.254h34.22c7.119 0 12.602-5.486 12.602-12.254v-47.172h59.446c32.757 0 59.403 26.652 59.403 59.332v59.518z" fill="" p-id="27333"></path></svg>