<?xml version="1.0" standalone="no"?><!DOCTYPE svg PUBLIC "-//W3C//DTD SVG 1.1//EN" "http://www.w3.org/Graphics/SVG/1.1/DTD/svg11.dtd"><svg t="1553565824148" class="icon" style="" viewBox="0 0 1024 1024" version="1.1" xmlns="http://www.w3.org/2000/svg" p-id="6504" xmlns:xlink="http://www.w3.org/1999/xlink" width="200" height="200"><defs><style type="text/css"></style></defs><path d="M926.6 430H116.8c-13.9 0-25.3-11.4-25.3-25.3s11.4-25.3 25.3-25.3h809.8c13.9 0 25.3 11.4 25.3 25.3S940.5 430 926.6 430zM407.8 214.9h265.7c13.9 0 25.3-11.4 25.3-25.3s-11.4-25.3-25.3-25.3H407.8c-13.9 0-25.3 11.4-25.3 25.3s11.4 25.3 25.3 25.3z m0 0" fill="#020202" p-id="6505"></path><path d="M825.4 164.3c-13.9 0-25.3 11.4-25.3 25.3s11.4 25.3 25.3 25.3c41.8 0 75.9 34.2 75.9 75.9v518.8c0 41.8-34.2 75.9-75.9 75.9H218c-41.8 0-75.9-34.2-75.9-75.9V290.8c0-41.8 34.2-75.9 75.9-75.9h38c13.9 0 25.3-11.4 25.3-25.3s-11.4-25.3-25.3-25.3h-38c-69.6 0-126.5 56.9-126.5 126.5v518.8c0 69.6 56.9 126.5 126.5 126.5h607.4c69.6 0 126.5-56.9 126.5-126.5V290.8c0-69.6-56.9-126.5-126.5-126.5z m0 0" fill="#020202" p-id="6506"></path><path d="M331.9 290.8c-13.9 0-25.3-11.4-25.3-25.3V113.6c0-13.9 11.4-25.3 25.3-25.3s25.3 11.4 25.3 25.3v151.8c0 14-11.4 25.4-25.3 25.4z m417.6 0c-13.9 0-25.3-11.4-25.3-25.3V113.6c0-13.9 11.4-25.3 25.3-25.3s25.3 11.4 25.3 25.3v151.8c0 14-11.4 25.4-25.3 25.4z m0 0M391.4 595.7h-60.7v-35.4c15.2 1.3 29.1-2.5 41.8-10.1 12.7-7.6 21.5-19 27.8-32.9h40.5v251.8h-50.6V595.7h1.2z m294.8 89.9c0 27.8-8.9 49.3-25.3 65.8-16.4 16.4-39.2 24-67.1 24-22.8 0-40.5-6.3-55.7-20.2-15.2-12.7-22.8-31.6-25.3-53.1h49.3c1.3 11.4 5.1 20.2 11.4 25.3 6.3 6.3 13.9 8.9 25.3 8.9s19-3.8 26.6-12.7c6.3-8.9 10.1-19 10.1-32.9 0-13.9-3.8-25.3-10.1-34.2-6.3-8.9-15.2-12.7-26.6-12.7-6.3 0-13.9 1.3-19 5.1s-10.1 7.6-13.9 12.7l-44.3-2.5L538 522.4h137.9v41.8H573.6l-8.9 53.1c13.9-8.9 29.1-12.7 45.6-12.7 22.8 0 40.5 7.6 54.4 22.8 15.2 15.1 21.5 34.1 21.5 58.2z m0 0" fill="#020202" p-id="6507"></path></svg>