<?xml version="1.0" standalone="no"?><!DOCTYPE svg PUBLIC "-//W3C//DTD SVG 1.1//EN" "http://www.w3.org/Graphics/SVG/1.1/DTD/svg11.dtd"><svg t="1553566022534" class="icon" style="" viewBox="0 0 1024 1024" version="1.1" xmlns="http://www.w3.org/2000/svg" p-id="13672" xmlns:xlink="http://www.w3.org/1999/xlink" width="200" height="200"><defs><style type="text/css"></style></defs><path d="M850.285714 401.188571H188.891429c-10.057143 0-18.285714-8.228571-18.285715-18.285714s8.228571-18.285714 18.285715-18.285714H850.285714c10.057143 0 18.285714 8.228571 18.285715 18.285714s-8.228571 18.285714-18.285715 18.285714zM684.982857 768.548571h-154.331428c-10.057143 0-18.285714-8.228571-18.285715-18.285714v-0.914286c0-4.937143 2.011429-9.691429 5.485715-13.165714l20.48-19.931428 0.365714-0.365715c13.165714-12.068571 25.782857-23.222857 38.034286-34.011428 50.285714-44.434286 89.965714-79.542857 89.965714-114.834286 0-9.325714-2.925714-55.954286-62.171429-55.954286-29.074286 0-49.737143 12.251429-61.988571 22.674286-7.68 6.582857-19.2 5.485714-25.782857-2.194286-6.582857-7.68-5.485714-19.2 2.194285-25.782857 23.954286-20.114286 54.308571-31.268571 85.577143-31.268571 67.84 0 98.742857 47.908571 98.742857 92.525714 0 51.748571-45.165714 91.611429-102.217142 142.262857-8.228571 7.314286-16.64 14.811429-25.417143 22.674286h109.348571c10.057143 0 18.285714 8.228571 18.285714 18.285714s-8.228571 18.285714-18.285714 18.285714zM615.131429 146.468571H410.514286c-20.114286 0-36.571429-16.457143-36.571429-36.571428s16.457143-36.571429 36.571429-36.571429h204.617143c20.114286 0 36.571429 16.457143 36.571428 36.571429s-16.274286 36.571429-36.571428 36.571428zM286.902857 201.874286c-10.057143 0-18.285714-8.228571-18.285714-18.285715V28.891429c0-10.057143 8.228571-18.285714 18.285714-18.285715s18.285714 8.228571 18.285714 18.285715v154.88c0 10.057143-8.228571 18.102857-18.285714 18.102857zM736.182857 202.422857c-10.057143 0-18.285714-8.228571-18.285714-18.285714v-155.428572c0-10.057143 8.228571-18.285714 18.285714-18.285714s18.285714 8.228571 18.285714 18.285714v155.428572c0 10.24-8.228571 18.285714-18.285714 18.285714z" p-id="13673"></path><path d="M959.817143 1023.634286H59.245714c-33.097143 0-59.062857-27.428571-59.062857-62.354286V135.68c0-34.925714 25.965714-62.354286 59.062857-62.354286H166.4c20.114286 0 36.571429 16.457143 36.571429 36.571429s-16.457143 36.571429-36.571429 36.571428H73.142857v804.022858h877.531429V146.468571H861.257143c-20.114286 0-36.571429-16.457143-36.571429-36.571428s16.457143-36.571429 36.571429-36.571429h98.56c34.742857 0 64 28.708571 64 62.537143v825.417143c0 33.828571-29.257143 62.354286-64 62.354286z" p-id="13674"></path><path d="M390.948571 768.548571c-10.057143 0-18.285714-8.228571-18.285714-18.285714v-223.085714l-26.697143 17.737143c-8.411429 5.668571-19.748571 3.291429-25.417143-5.12-5.668571-8.411429-3.291429-19.748571 5.12-25.417143l55.04-36.754286c5.668571-3.657143 12.8-4.022857 18.834286-0.914286 6.034286 3.108571 9.691429 9.325714 9.691429 16.091429v257.28c0 10.422857-8.228571 18.468571-18.285715 18.468571z" p-id="13675"></path></svg>