<?xml version="1.0" standalone="no"?><!DOCTYPE svg PUBLIC "-//W3C//DTD SVG 1.1//EN" "http://www.w3.org/Graphics/SVG/1.1/DTD/svg11.dtd"><svg t="1553565966335" class="icon" style="" viewBox="0 0 1024 1024" version="1.1" xmlns="http://www.w3.org/2000/svg" p-id="10219" xmlns:xlink="http://www.w3.org/1999/xlink" width="200" height="200"><defs><style type="text/css"></style></defs><path d="M0.2 512.049995a511.949995 511.949995 0 1 0 1023.89999 0 511.949995 511.949995 0 1 0-1023.89999 0z" fill="#00C9CA" p-id="10220"></path><path d="M263.273997 771.624992l309.269997 248.774998C826.819992 990.50299 1023.99999 774.323992 1023.99999 511.949995c0-5.5-0.1-10.999-0.3-16.398L759.525993 273.872997l-7.1-6.3-6.899 1.8-13.998-11.498-35.997-35.696999-28.997 41.195999-248.575997 24.598-75.091999-66.193999-79.593 95.190999 31.697 167.983998 109.589999 86.090999-26.998 109.489999-114.288999 91.089999z" fill="#00BAB5" p-id="10221"></path><path d="M687.932993 246.675998h4.6c52.893999 0 96.089999 43.296 96.089999 96.089999v360.864996c0 52.894999-43.296 96.089999-96.089999 96.089999h-4.6V383.363996c20.198 0 36.496-16.399 36.496-36.496999 0-20.198-16.398-36.496-36.496-36.496v-63.693999z m-351.565996 0h351.565996v63.593999c-20.198 0-36.597 16.398-36.596999 36.496 0 20.198 16.399 36.497 36.596999 36.496999v416.458996H336.366997v-416.359996c20.198 0 36.597-16.398 36.596999-36.495999 0-20.198-16.399-36.496-36.596999-36.496v-63.693999z m-4.7 0h4.6v63.593999c-20.198 0-36.496 16.398-36.496 36.496 0 20.198 16.398 36.497 36.496 36.496999v416.458996h-4.6c-52.893999 0-96.089999-43.296-96.089999-96.089999V342.765997c0-52.794999 43.296-96.090999 96.089999-96.090999z" fill="#FFFFFF" p-id="10222"></path><path d="M687.932993 246.675998h4.6c52.893999 0 96.089999 43.296 96.089999 96.089999v66.193999h-100.689999v-25.697c20.198 0 36.496-16.399 36.496-36.496999 0-20.198-16.398-36.496-36.496-36.496v-63.593999z m-351.565996 0h351.565996v63.593999c-20.198 0-36.597 16.398-36.596999 36.496 0 20.198 16.399 36.497 36.596999 36.496999v25.697H336.366997v-25.697c20.198 0 36.597-16.399 36.596999-36.496999 0-20.198-16.399-36.496-36.596999-36.496v-63.593999z m-4.7 0h4.6v63.593999c-20.198 0-36.496 16.398-36.496 36.496 0 20.198 16.398 36.497 36.496 36.496999v25.697h-100.689999v-66.192999c0-52.794999 43.296-96.090999 96.089999-96.090999z" fill="#FFAD00" p-id="10223"></path><path d="M336.366997 220.177998c7.8 0 14.199 6.4 14.199 14.2v98.289999c0 7.799-6.4 14.198-14.199 14.198-7.8 0-14.198-6.4-14.198-14.198v-98.289999c0-7.9 6.299-14.2 14.198-14.2z m351.565996 0c7.8 0 14.198 6.4 14.198 14.2v98.289999c0 7.799-6.399 14.198-14.198 14.198-7.8 0-14.199-6.4-14.199-14.198v-98.289999c0.1-7.9 6.4-14.2 14.199-14.2z" fill="#FFFFFF" p-id="10224"></path><path d="M446.755996 736.927993h-49.795V549.245995c-18.198 16.999-39.596 29.597-64.292999 37.796999v-45.195999c12.998-4.3 27.097-12.299 42.394999-24.198 15.199-11.898 25.698-25.697 31.397-41.595h40.396v260.873998z m117.188998-140.185999c-12.899-5.4-22.198-12.899-28.096999-22.398-5.8-9.5-8.8-19.898-8.8-31.296999 0-19.398 6.8-35.397 20.299-47.995 13.498-12.6 32.796-18.998 57.693999-18.998 24.698 0 43.896 6.299 57.494 18.998 13.599 12.598 20.498 28.697 20.497999 47.995 0 12.099-3.1 22.798-9.399 32.196999-6.3 9.399-15.098 16.598-26.396999 21.498 14.398 5.8 25.397 14.198 32.896999 25.297 7.499 11.1 11.298 23.898 11.298 38.496 0 23.998-7.699 43.496-22.997 58.494999s-35.697 22.498-61.093999 22.498c-23.598 0-43.296-6.2-58.994999-18.599-18.598-14.698-27.797-34.696-27.797-60.293999 0-14.098 3.5-26.997 10.5-38.696 6.898-11.799 17.897-20.798 32.895999-27.197z m5.7 61.094c0 13.698 3.499 24.397 10.498 32.096999 7 7.699 15.799 11.499 26.298 11.499 10.299 0 18.798-3.7 25.497-11.1 6.7-7.399 10.1-17.998 10.1-31.995999 0-12.2-3.4-21.998-10.3-29.297-6.899-7.4-15.498-11.1-26.097-11.1-12.199 0-21.198 4.2-27.197 12.6-5.8 8.399-8.8 17.498-8.8 27.297z m4.599-111.289999c0 9.9 2.8 17.699 8.4 23.197999 5.599 5.6 13.098 8.3 22.397 8.3 9.499 0 16.998-2.8 22.698-8.4 5.7-5.6 8.499-13.398 8.499-23.296999 0-9.3-2.8-16.799-8.4-22.398-5.599-5.6-12.998-8.4-22.197-8.4-9.6 0-17.198 2.8-22.898 8.5-5.7 5.7-8.5 13.199-8.5 22.498z" fill="#2A2A29" p-id="10225"></path></svg>