<?xml version="1.0" standalone="no"?><!DOCTYPE svg PUBLIC "-//W3C//DTD SVG 1.1//EN" "http://www.w3.org/Graphics/SVG/1.1/DTD/svg11.dtd"><svg t="1553565904777" class="icon" style="" viewBox="0 0 1024 1024" version="1.1" xmlns="http://www.w3.org/2000/svg" p-id="7281" xmlns:xlink="http://www.w3.org/1999/xlink" width="200" height="200"><defs><style type="text/css"></style></defs><path d="M331.195733 288.955733a34.133333 34.133333 0 0 0 34.133334-34.133333v-170.666667a34.133333 34.133333 0 0 0-68.266667 0v170.666667a34.133333 34.133333 0 0 0 34.133333 34.133333zM689.595733 288.955733a34.133333 34.133333 0 0 0 34.133334-34.133333v-170.666667a34.133333 34.133333 0 0 0-68.266667 0v170.666667a34.133333 34.133333 0 0 0 34.133333 34.133333z" fill="#040000" p-id="7282"></path><path d="M904.533333 205.9776h-112.5376v48.8448a102.4 102.4 0 0 1-204.8 0v-48.8448h-153.6v48.8448a102.4 102.4 0 0 1-204.8 0v-48.8448H119.466667c-37.546667 0-68.266667 30.72-68.266667 68.266667v631.466666c0 37.546667 30.72 68.266667 68.266667 68.266667h785.066666c37.546667 0 68.266667-30.72 68.266667-68.266667v-631.466666c0-37.546667-30.72-68.266667-68.266667-68.266667zM407.552 777.949867a34.133333 34.133333 0 0 1-68.266667 0v-273.066667a34.133333 34.133333 0 0 1 68.266667 0v273.066667z m273.954133 0a34.133333 34.133333 0 0 1-34.133333 34.133333H510.122667a34.133333 34.133333 0 0 1-34.133334-34.133333v-273.066667a34.133333 34.133333 0 0 1 34.133334-34.133333h137.250133a34.133333 34.133333 0 0 1 34.133333 34.133333v273.066667z" fill="#040000" p-id="7283"></path><path d="M544.256 539.016533h68.983467v204.8H544.256z" fill="#040000" p-id="7284"></path></svg>