<?xml version="1.0" standalone="no"?><!DOCTYPE svg PUBLIC "-//W3C//DTD SVG 1.1//EN" "http://www.w3.org/Graphics/SVG/1.1/DTD/svg11.dtd"><svg t="1553566391829" class="icon" style="" viewBox="0 0 1024 1024" version="1.1" xmlns="http://www.w3.org/2000/svg" p-id="29828" xmlns:xlink="http://www.w3.org/1999/xlink" width="200" height="200"><defs><style type="text/css"></style></defs><path d="M334.08 811.5h61.398V467.667h-45.68c-1.965 10.484-6.14 19.325-12.525 26.524-6.386 7.207-14.084 13.102-23.086 17.683-9.01 4.59-19.08 7.86-30.208 9.824-11.136 1.965-22.595 2.947-34.383 2.947v44.207h84.484v242.646z m204.087-45.437c9.333 16.21 22.104 28.98 38.313 38.313s36.915 13.999 62.135 13.999c17.023 0 32.58-2.947 46.663-8.842 14.076-5.894 26.195-14.16 36.348-24.805 10.146-10.637 17.93-23.085 23.332-37.329 5.403-14.244 8.104-29.717 8.104-46.417 0-16.37-2.455-31.596-7.366-45.68-4.913-14.076-12.036-26.279-21.367-36.594-9.333-10.315-20.715-18.42-34.138-24.314-13.43-5.895-28.657-8.842-45.68-8.842-15.397 0-29.717 3.362-42.979 10.07-13.263 6.714-23.662 16.946-31.19 30.699l-0.983-0.983c0.653-7.528 1.389-15.633 2.21-24.313 0.814-8.673 2.211-17.438 4.176-26.279 1.965-8.842 4.497-17.268 7.612-25.297 3.109-8.02 7.2-15.142 12.28-21.367 5.073-6.216 11.297-11.213 18.665-14.98 7.368-3.762 16.125-5.65 26.278-5.65 14.736 0 26.44 4.344 35.12 13.017 8.673 8.68 13.669 20.062 14.982 34.137h55.996c-0.661-14.075-3.93-26.846-9.825-38.312-5.894-11.46-13.508-21.282-22.84-29.471-9.332-8.182-20.061-14.567-32.172-19.157-12.119-4.582-25.05-6.876-38.804-6.876-24.237 0-44.62 5.403-61.152 16.209-16.54 10.806-29.886 24.805-40.032 41.996-10.154 17.192-17.437 36.271-21.858 57.224-4.42 20.959-6.63 41.75-6.63 62.38 0 25.22 1.796 48.713 5.402 70.486 3.598 21.783 10.068 40.77 19.4 56.978z m40.524-93.079c2.618-8.511 6.546-15.964 11.788-22.35 5.235-6.384 11.705-11.458 19.402-15.226 7.691-3.761 16.617-5.649 26.77-5.649 10.146 0 18.988 1.965 26.524 5.894 7.529 3.93 13.831 9.087 18.91 15.473 5.073 6.385 8.842 13.837 11.298 22.349 2.455 8.519 3.684 17.36 3.684 26.524 0 9.172-1.228 18.097-3.684 26.77-2.456 8.68-6.225 16.293-11.297 22.839-5.08 6.554-11.382 11.873-18.91 15.964-7.537 4.099-16.379 6.14-26.525 6.14-10.153 0-19.08-1.965-26.77-5.894-7.697-3.93-14.167-9.249-19.402-15.965-5.241-6.708-9.17-14.321-11.788-22.839-2.625-8.512-3.93-17.514-3.93-27.015 0-9.492 1.304-18.495 3.93-27.015z" p-id="29829"></path><path d="M838.026 126.409H778.58V79.238c0-6.723-5.642-12.254-12.603-12.254h-34.219c-7.118 0-12.602 5.486-12.602 12.254v47.171H303.182V79.238c0-6.723-5.642-12.254-12.602-12.254h-34.22c-7.118 0-12.602 5.486-12.602 12.254v47.171h-59.446c-65.738 0-118.829 53.169-118.829 118.756v594.434c0 65.449 53.201 118.756 118.829 118.756h653.715c65.739 0 118.829-53.169 118.829-118.756V245.165c-0.001-65.449-53.203-118.756-118.83-118.756zM897.43 839.6c0 32.806-26.523 59.332-59.403 59.332H184.311c-32.757 0-59.403-26.652-59.403-59.332V364.108h772.521V839.6z m0-534.917H124.908v-59.518c0-32.806 26.523-59.332 59.403-59.332h59.446v47.172c0 6.723 5.642 12.254 12.602 12.254h34.22c7.118 0 12.602-5.486 12.602-12.254v-47.172h415.973v47.172c0 6.723 5.643 12.254 12.602 12.254h34.22c7.119 0 12.602-5.486 12.602-12.254v-47.172h59.446c32.757 0 59.403 26.652 59.403 59.332v59.518z" p-id="29830"></path></svg>