<?xml version="1.0" standalone="no"?><!DOCTYPE svg PUBLIC "-//W3C//DTD SVG 1.1//EN" "http://www.w3.org/Graphics/SVG/1.1/DTD/svg11.dtd"><svg t="1553566413371" class="icon" style="" viewBox="0 0 1024 1024" version="1.1" xmlns="http://www.w3.org/2000/svg" p-id="30027" xmlns:xlink="http://www.w3.org/1999/xlink" width="200" height="200"><defs><style type="text/css"></style></defs><path d="M401.987 625.543c-10.154 8.842-21.29 17.116-33.401 24.805a620.874 620.874 0 0 0-34.875 23.822c-23.254 15.718-41.59 34.222-55.013 55.505-13.43 21.29-20.307 46.171-20.63 74.66h234.788v-50.101H325.361c2.287-7.528 6.546-14.65 12.771-21.367 6.217-6.707 13.508-13.178 21.857-19.402 8.351-6.216 17.438-12.44 27.262-18.665a761.54 761.54 0 0 0 29.471-19.647 368.44 368.44 0 0 0 28.489-22.104c9.164-7.86 17.353-16.454 24.56-25.787 7.198-9.332 12.932-19.563 17.192-30.699 4.25-11.129 6.384-23.577 6.384-37.33 0-11.129-1.803-22.84-5.402-35.12-3.607-12.279-9.747-23.653-18.42-34.137-8.68-10.475-20.061-19.156-34.137-26.033-14.084-6.876-31.605-10.314-52.557-10.314-19.325 0-36.271 3.361-50.838 10.069-14.575 6.715-26.938 15.963-37.084 27.752-10.155 11.788-17.768 25.787-22.84 41.995-5.081 16.21-7.614 33.817-7.614 52.804h55.995c0.323-12.11 1.55-23.408 3.684-33.892 2.127-10.475 5.403-19.562 9.824-27.26 4.42-7.69 10.315-13.754 17.683-18.175 7.368-4.42 16.615-6.63 27.752-6.63 12.11 0 21.934 2.048 29.471 6.14 7.529 4.098 13.423 9.17 17.683 15.226 4.25 6.063 7.122 12.61 8.595 19.647 1.473 7.046 2.21 13.677 2.21 19.892-0.33 13.431-3.769 25.298-10.315 35.613-6.554 10.313-14.903 19.892-25.05 28.733z m150.058 125.5c8.673 17.521 20.79 31.926 36.348 43.224 15.549 11.297 35.612 16.946 60.171 16.946s44.613-5.649 60.17-16.946c15.549-11.298 27.668-25.703 36.349-43.225 8.673-17.514 14.566-36.754 17.682-57.714 3.108-20.952 4.667-41.259 4.667-60.907s-1.558-39.948-4.667-60.909c-3.116-20.952-9.01-40.192-17.682-57.713-8.68-17.514-20.8-31.927-36.348-43.224-15.558-11.298-35.611-16.946-60.17-16.946s-44.622 5.648-60.172 16.946c-15.556 11.297-27.675 25.71-36.348 43.224-8.68 17.521-14.574 36.762-17.683 57.713-3.116 20.96-4.666 41.26-4.666 60.909s1.55 39.955 4.666 60.907c3.108 20.96 9.002 40.2 17.683 57.714z m36.592-169.461c1.965-15.879 5.319-29.878 10.07-41.997 4.744-12.11 11.128-21.688 19.157-28.733 8.02-7.038 18.25-10.56 30.7-10.56 12.11 0 22.263 3.522 30.453 10.56 8.181 7.045 14.65 16.623 19.402 28.733 4.743 12.12 8.104 26.118 10.07 41.997 1.964 15.887 2.946 32.833 2.946 50.839 0 18.013-0.982 35.043-2.947 51.083-1.965 16.049-5.326 30.046-10.07 41.997-4.75 11.957-11.22 21.451-19.401 28.488-8.19 7.046-18.343 10.56-30.454 10.56-12.448 0-22.68-3.515-30.699-10.56-8.029-7.037-14.413-16.531-19.157-28.488-4.751-11.95-8.105-25.948-10.07-41.997-1.964-16.04-2.947-33.07-2.947-51.083 0-18.006 0.983-34.951 2.947-50.84z" p-id="30028"></path><path d="M838.026 126.409H778.58V79.238c0-6.723-5.642-12.254-12.603-12.254h-34.219c-7.118 0-12.602 5.486-12.602 12.254v47.171H303.182V79.238c0-6.723-5.642-12.254-12.602-12.254h-34.22c-7.118 0-12.602 5.486-12.602 12.254v47.171h-59.446c-65.738 0-118.829 53.169-118.829 118.756v594.434c0 65.449 53.201 118.756 118.829 118.756h653.715c65.739 0 118.829-53.169 118.829-118.756V245.165c-0.001-65.449-53.203-118.756-118.83-118.756zM897.43 839.6c0 32.806-26.523 59.332-59.403 59.332H184.311c-32.757 0-59.403-26.652-59.403-59.332V364.108h772.521V839.6z m0-534.917H124.908v-59.518c0-32.806 26.523-59.332 59.403-59.332h59.446v47.172c0 6.723 5.642 12.254 12.602 12.254h34.22c7.118 0 12.602-5.486 12.602-12.254v-47.172h415.973v47.172c0 6.723 5.643 12.254 12.602 12.254h34.22c7.119 0 12.602-5.486 12.602-12.254v-47.172h59.446c32.757 0 59.403 26.652 59.403 59.332v59.518z" p-id="30029"></path></svg>