<?xml version="1.0" standalone="no"?><!DOCTYPE svg PUBLIC "-//W3C//DTD SVG 1.1//EN" "http://www.w3.org/Graphics/SVG/1.1/DTD/svg11.dtd"><svg t="1553566145832" class="icon" style="" viewBox="0 0 1024 1024" version="1.1" xmlns="http://www.w3.org/2000/svg" p-id="23442" xmlns:xlink="http://www.w3.org/1999/xlink" width="200" height="200"><defs><style type="text/css"></style></defs><path d="M511.923677 512.928596m-508.819876 0a508.819876 508.819876 0 1 0 1017.639752 0 508.819876 508.819876 0 1 0-1017.639752 0Z" fill="#DF71F5" p-id="23443"></path><path d="M511.923677 512.928596m-355.442484 0a355.442484 355.442484 0 1 0 710.884968 0 355.442484 355.442484 0 1 0-710.884968 0Z" fill="#51E4C2" p-id="23444"></path><path d="M840.95205 260.216845c0-42.155727-34.167255-76.322981-76.322982-76.322982H259.218286c-42.155727 0-76.322981 34.167255-76.322982 76.322982v505.423503c0 42.149366 34.167255 76.322981 76.322982 76.322981h432.39513l149.351354-149.351354V260.216845z" fill="#FFFFFF" p-id="23445"></path><path d="M840.945689 692.605615h-73.015652c-42.168447 0-76.322981 34.154534-76.322981 76.322981v73.015652l149.338633-149.338633z" fill="#F9EDED" p-id="23446"></path><path d="M840.95205 359.506683V260.216845c0-42.155727-34.167255-76.322981-76.322982-76.322982H259.218286c-42.155727 0-76.322981 34.167255-76.322982 76.322982v99.289838H840.95205z" fill="#1afa29" p-id="23447"></path><path d="M408.811329 510.009242c-6.41113 4.573019-13.210236 11.499329-20.403677 20.804373l-22.915975-17.904099a160.163776 160.163776 0 0 1 13.432845-16.523926 71.495553 71.495553 0 0 1 14.876621-12.218037 68.824248 68.824248 0 0 1 17.643329-7.581416c6.41113-1.768149 13.738137-2.658584 21.993739-2.658584 9.126957 0 17.471602 1.316571 25.021218 3.956074 7.549615 2.626783 13.960745 6.40477 19.227031 11.321243a51.390807 51.390807 0 0 1 12.243478 17.516124c2.893913 6.754584 4.35041 14.266037 4.35041 22.515279 0 7.377888-0.966758 13.954385-2.900273 19.754932a62.037863 62.037863 0 0 1-8.821665 16.854658c-3.949714 5.444373-8.95523 10.971429-15.010186 16.593889a488.409839 488.409839 0 0 1-21.205069 18.432l-37.926161 31.610434h87.707826v28.436671H362.852174v-25.504596l63.468919-53.896745a271.169193 271.169193 0 0 0 16.065988-14.32964c4.388571-4.293168 7.94395-8.370087 10.666136-12.230758 2.715826-3.854311 4.700224-7.619578 5.921392-11.302161 1.227528-3.676224 1.844472-7.625938 1.844472-11.830063 0-9.114236-2.849391-16.174112-8.560895-21.166906-5.705143-4.999155-12.765019-7.492373-21.192347-7.492373-8.427329 0-15.856099 2.283329-22.26087 6.843627zM573.675329 510.009242c-6.41113 4.573019-13.210236 11.499329-20.410037 20.804373l-22.909615-17.904099a160.176497 160.176497 0 0 1 13.432845-16.523926 71.501913 71.501913 0 0 1 14.876621-12.218037 68.824248 68.824248 0 0 1 17.643329-7.581416c6.41113-1.768149 13.738137-2.658584 21.993739-2.658584 9.126957 0 17.471602 1.316571 25.021218 3.956074 7.543255 2.626783 13.960745 6.40477 19.227031 11.321243a51.390807 51.390807 0 0 1 12.243478 17.516124c2.893913 6.754584 4.35041 14.266037 4.35041 22.515279 0 7.377888-0.973118 13.954385-2.900273 19.754932a62.044224 62.044224 0 0 1-8.821665 16.854658c-3.949714 5.444373-8.95523 10.971429-15.010186 16.593889a488.327155 488.327155 0 0 1-21.205069 18.432l-37.926161 31.610434h87.707826v28.436671H527.716174v-25.504596l63.468919-53.896745a271.169193 271.169193 0 0 0 16.065988-14.32964c4.388571-4.293168 7.94395-8.370087 10.666136-12.230758 2.715826-3.854311 4.700224-7.619578 5.921392-11.302161 1.227528-3.676224 1.844472-7.625938 1.844472-11.830063 0-9.114236-2.855752-16.174112-8.560895-21.166906-5.705143-4.999155-12.771379-7.492373-21.198708-7.492373-8.427329 0-15.849739 2.283329-22.254509 6.843627z" fill="#534741" p-id="23448"></path><path d="M288.157416 290.319901m-23.323031 0a23.323031 23.323031 0 1 0 46.646062 0 23.323031 23.323031 0 1 0-46.646062 0Z" fill="#252528" p-id="23449"></path><path d="M288.157416 277.599404m-23.323031 0a23.323031 23.323031 0 1 0 46.646062 0 23.323031 23.323031 0 1 0-46.646062 0Z" fill="#F8E71C" p-id="23450"></path><path d="M735.689938 290.319901m-23.323031 0a23.323031 23.323031 0 1 0 46.646062 0 23.323031 23.323031 0 1 0-46.646062 0Z" fill="#252528" p-id="23451"></path><path d="M735.689938 277.599404m-23.323031 0a23.323031 23.323031 0 1 0 46.646062 0 23.323031 23.323031 0 1 0-46.646062 0Z" fill="#F8E71C" p-id="23452"></path><path d="M182.888944 359.506683h658.056745v18.730932H182.888944z" fill="#FE3D50" p-id="23453"></path><path d="M691.607056 829.223752v-50.862907H259.211925c-42.155727 0-76.322981-34.173615-76.322981-76.322982v50.881988c0 42.149366 34.167255 76.322981 76.322981 76.322981h432.395131" fill="#FE3D50" p-id="23454"></path></svg>