<?xml version="1.0" standalone="no"?><!DOCTYPE svg PUBLIC "-//W3C//DTD SVG 1.1//EN" "http://www.w3.org/Graphics/SVG/1.1/DTD/svg11.dtd"><svg t="1553566471089" class="icon" style="" viewBox="0 0 1024 1024" version="1.1" xmlns="http://www.w3.org/2000/svg" p-id="30757" xmlns:xlink="http://www.w3.org/1999/xlink" width="200" height="200"><defs><style type="text/css"></style></defs><path d="M398.918 625.543c-10.155 8.842-21.291 17.116-33.402 24.805a620.5 620.5 0 0 0-34.875 23.822c-23.254 15.718-41.59 34.222-55.012 55.505-13.431 21.29-20.308 46.171-20.63 74.66h234.787v-50.101H322.291c2.287-7.528 6.546-14.65 12.771-21.367 6.217-6.707 13.508-13.178 21.857-19.402 8.351-6.216 17.438-12.44 27.262-18.665a761.54 761.54 0 0 0 29.471-19.647 368.44 368.44 0 0 0 28.489-22.104c9.164-7.86 17.353-16.454 24.56-25.787 7.198-9.332 12.932-19.563 17.192-30.699 4.25-11.129 6.384-23.577 6.384-37.33 0-11.129-1.803-22.84-5.402-35.12-3.607-12.279-9.747-23.653-18.42-34.137-8.679-10.475-20.061-19.156-34.137-26.033-14.084-6.876-31.605-10.314-52.557-10.314-19.325 0-36.27 3.361-50.838 10.069-14.575 6.715-26.938 15.963-37.084 27.752-10.155 11.788-17.767 25.787-22.84 41.995-5.081 16.21-7.613 33.817-7.613 52.804h55.995c0.323-12.11 1.55-23.408 3.684-33.892 2.127-10.475 5.403-19.562 9.825-27.26 4.42-7.69 10.315-13.754 17.683-18.175 7.367-4.42 16.615-6.63 27.752-6.63 12.11 0 21.935 2.048 29.471 6.14 7.529 4.098 13.423 9.17 17.683 15.226 4.25 6.063 7.122 12.61 8.595 19.647 1.473 7.046 2.21 13.677 2.21 19.892-0.33 13.431-3.769 25.298-10.315 35.613-6.556 10.313-14.905 19.892-25.051 28.733z m156.687 29.717c9.494 9.993 20.876 17.767 34.138 23.332 13.262 5.571 28.074 8.35 44.452 8.35 15.717 0 30.124-3.516 43.223-10.56 13.094-7.038 23.409-17.268 30.945-30.7l0.983 0.983c-0.983 11.466-2.38 23.991-4.175 37.576-1.805 13.592-5.158 26.363-10.07 38.312-4.912 11.958-11.873 21.942-20.875 29.963-9.01 8.028-21.044 12.034-36.101 12.034-14.736 0-26.449-4.336-35.12-13.017-8.68-8.673-13.677-20.054-14.982-34.137h-55.996c0.653 14.084 3.93 26.854 9.825 38.313 5.894 11.465 13.508 21.29 22.84 29.47 9.332 8.19 20.054 14.575 32.172 19.157 12.11 4.582 25.05 6.877 38.804 6.877 24.23 0 44.614-5.402 61.152-16.21 16.532-10.806 29.879-24.804 40.032-41.996 10.146-17.192 17.437-36.264 21.858-57.223 4.42-20.953 6.63-41.751 6.63-62.381 0-24.882-1.803-48.297-5.402-70.24-3.607-21.935-9.909-41.014-18.91-57.223-9.011-16.21-21.367-28.98-37.085-38.313-15.717-9.332-35.695-13.998-59.925-13.998-18.665 0-35.366 2.947-50.101 8.84-14.736 5.895-27.184 14.169-37.33 24.806-10.154 10.644-17.851 23.086-23.086 37.33-5.242 14.243-7.86 29.717-7.86 46.417 0 17.682 2.618 33.647 7.86 47.891 5.236 14.244 12.604 26.362 22.104 36.347z m29.717-111.254c2.456-8.51 6.14-16.04 11.053-22.595 4.912-6.546 11.128-11.704 18.664-15.472 7.528-3.76 16.37-5.649 26.524-5.649 10.476 0 19.647 1.965 27.507 5.895 7.86 3.929 14.32 9.087 19.402 15.472 5.073 6.385 8.918 13.837 11.542 22.349 2.618 8.519 3.93 17.36 3.93 26.524 0 9.501-1.312 18.588-3.93 27.262-2.624 8.68-6.47 16.378-11.542 23.086-5.082 6.715-11.543 12.034-19.402 15.963-7.86 3.93-17.03 5.896-27.507 5.896-10.153 0-18.995-2.042-26.524-6.14-7.536-4.091-13.752-9.41-18.664-15.965-4.913-6.546-8.596-14.16-11.053-22.839-2.455-8.674-3.684-17.76-3.684-27.262 0.001-9.165 1.229-18.005 3.684-26.525z" fill="" p-id="30758"></path><path d="M838.026 126.409H778.58V79.238c0-6.723-5.642-12.254-12.603-12.254h-34.219c-7.118 0-12.602 5.486-12.602 12.254v47.171H303.182V79.238c0-6.723-5.642-12.254-12.602-12.254h-34.22c-7.118 0-12.602 5.486-12.602 12.254v47.171h-59.446c-65.738 0-118.829 53.169-118.829 118.756v594.434c0 65.449 53.201 118.756 118.829 118.756h653.715c65.739 0 118.829-53.169 118.829-118.756V245.165c-0.001-65.449-53.203-118.756-118.83-118.756zM897.43 839.6c0 32.806-26.523 59.332-59.403 59.332H184.311c-32.757 0-59.403-26.652-59.403-59.332V364.108h772.521V839.6z m0-534.917H124.908v-59.518c0-32.806 26.523-59.332 59.403-59.332h59.446v47.172c0 6.723 5.642 12.254 12.602 12.254h34.22c7.118 0 12.602-5.486 12.602-12.254v-47.172h415.973v47.172c0 6.723 5.643 12.254 12.602 12.254h34.22c7.119 0 12.602-5.486 12.602-12.254v-47.172h59.446c32.757 0 59.403 26.652 59.403 59.332v59.518z" fill="" p-id="30759"></path></svg>