<?xml version="1.0" standalone="no"?><!DOCTYPE svg PUBLIC "-//W3C//DTD SVG 1.1//EN" "http://www.w3.org/Graphics/SVG/1.1/DTD/svg11.dtd"><svg t="1553566054438" class="icon" style="" viewBox="0 0 1202 1024" version="1.1" xmlns="http://www.w3.org/2000/svg" p-id="16368" xmlns:xlink="http://www.w3.org/1999/xlink" width="234.765625" height="200"><defs><style type="text/css"></style></defs><path d="M124.520596 11.904455h967.117896a101.425954 101.425954 0 0 1 101.425954 101.425953v231.898777h-1190.445466V133.80607A121.901616 121.901616 0 0 1 124.520596 11.904455z" fill="#EFEFEF" p-id="16369"></path><path d="M1095.209829 1023.783101H107.140092A107.140092 107.140092 0 0 1 0 916.643009v-809.502917A107.140092 107.140092 0 0 1 107.140092 0H1095.209829a107.140092 107.140092 0 0 1 107.140092 107.140092v809.502917A107.140092 107.140092 0 0 1 1095.209829 1023.783101zM107.140092 23.808909A83.331183 83.331183 0 0 0 23.808909 107.140092v809.502917A83.331183 83.331183 0 0 0 107.140092 999.974192H1095.209829a83.331183 83.331183 0 0 0 83.331182-83.331183v-809.502917A83.331183 83.331183 0 0 0 1095.209829 23.808909z" fill="" p-id="16370"></path><path d="M369.276184 809.502917h200.709105v43.570304H299.27799v-32.142028a433.798328 433.798328 0 0 1 121.187349-136.42505q96.664172-68.093481 89.04532-109.759072-1.904713-64.284055-71.426727-66.188768-62.379342 0-79.521758 73.807619l-53.093867-17.142415q28.332602-104.044934 142.853456-104.044933 115.47321 3.809425 123.092061 107.854359 9.523564 68.093481-92.854747 134.520337A375.4665 375.4665 0 0 0 369.276184 809.502917zM702.362825 654.268828v-1.904713a90.235766 90.235766 0 0 1-68.093481-87.140608Q642.840552 466.892712 761.885098 461.178574q115.47321 5.714138 126.901487 104.044933a84.759717 84.759717 0 0 1-71.426728 87.140608v1.904713a98.568885 98.568885 0 0 1 85.235895 98.568885q-1.904713 105.949646-145.710525 107.854359-132.615625-3.809425-136.42505-107.854359a101.664043 101.664043 0 0 1 81.902648-98.568885z m60.47463 166.662365q77.617044-1.904713 79.521757-68.09348-1.904713-66.188768-83.331183-75.712332-73.807619 7.618851-77.617044 73.807619 2.142802 68.093481 80.474113 69.998193z m0-318.087028q-64.284055 3.809425-68.093481 62.379342 0 58.808006 68.093481 66.188768 64.284055-9.523564 66.188768-64.284055a59.998451 59.998451 0 0 0-67.141125-64.284055zM17.856682 345.229185h1166.636557v23.808909h-1166.636557z" fill="" p-id="16371"></path><path d="M204.994709 238.089093m-59.522273 0a59.522273 59.522273 0 1 0 119.044547 0 59.522273 59.522273 0 1 0-119.044547 0Z" fill="#FFFFFF" p-id="16372"></path><path d="M204.994709 309.515821a71.426728 71.426728 0 1 1 71.426728-71.426728 71.426728 71.426728 0 0 1-71.426728 71.426728z m0-119.044546a47.617819 47.617819 0 1 0 47.617819 47.617818 47.617819 47.617819 0 0 0-47.617819-47.617818z" fill="" p-id="16373"></path><path d="M990.688717 238.089093m-59.522273 0a59.522273 59.522273 0 1 0 119.044546 0 59.522273 59.522273 0 1 0-119.044546 0Z" fill="#FFFFFF" p-id="16374"></path><path d="M990.688717 309.515821a71.426728 71.426728 0 1 1 71.426728-71.426728 71.426728 71.426728 0 0 1-71.426728 71.426728z m0-119.044546a47.617819 47.617819 0 1 0 47.617819 47.617818 47.617819 47.617819 0 0 0-47.617819-47.617818z" fill="" p-id="16375"></path><path d="M1023.783101 1011.878646v-166.662365h166.662365l-166.662365 166.662365z" fill="#EFEFEF" p-id="16376"></path><path d="M1023.783101 1023.783101a11.904455 11.904455 0 0 1-4.523693 0 11.904455 11.904455 0 0 1-7.380762-10.952098v-166.662366A11.904455 11.904455 0 0 1 1023.783101 833.311826h166.662365a11.904455 11.904455 0 0 1 8.333118 20.237573l-166.662365 166.662365A11.904455 11.904455 0 0 1 1023.783101 1023.783101z m11.904454-166.662365v125.94913L1161.636686 857.120736z" fill="" p-id="16377"></path></svg>