<?xml version="1.0" standalone="no"?><!DOCTYPE svg PUBLIC "-//W3C//DTD SVG 1.1//EN" "http://www.w3.org/Graphics/SVG/1.1/DTD/svg11.dtd"><svg t="1553566006898" class="icon" style="" viewBox="0 0 1024 1024" version="1.1" xmlns="http://www.w3.org/2000/svg" p-id="12266" xmlns:xlink="http://www.w3.org/1999/xlink" width="200" height="200"><defs><style type="text/css"></style></defs><path d="M73.142857 48.761905C73.142857 21.831436 94.839286 0 121.582821 0L902.417179 0C929.169832 0 950.857143 21.643703 950.857143 48.761905 950.857143 75.692373 929.160714 97.52381 902.417179 97.52381L121.582821 97.52381C94.830168 97.52381 73.142857 75.880107 73.142857 48.761905L73.142857 48.761905 73.142857 48.761905ZM73.142857 975.238095C73.142857 948.307627 94.839286 926.47619 121.582821 926.47619L902.417179 926.47619C929.169832 926.47619 950.857143 948.119893 950.857143 975.238095 950.857143 1002.168564 929.160714 1024 902.417179 1024L121.582821 1024C94.830168 1024 73.142857 1002.356297 73.142857 975.238095L73.142857 975.238095ZM284.769524 283.209143C235.617524 283.209143 195.34019 299.593143 165.302857 332.361143 135.265524 364.446476 119.56419 408.137143 119.56419 462.750476L175.542857 462.750476C176.225524 419.742476 186.465524 386.974476 205.58019 365.129143 223.329524 341.918476 249.270857 330.99581 282.721524 330.99581 314.12419 330.99581 339.382857 339.18781 357.13219 355.57181 374.881524 371.95581 383.75619 394.48381 383.75619 424.521143 383.75619 455.92381 370.785524 485.278476 346.209524 511.902476 333.238857 525.55581 307.98019 545.353143 269.750857 572.65981 217.86819 608.158476 183.05219 637.513143 163.937524 659.358476 131.169524 695.53981 115.46819 735.817143 115.46819 780.190476L440.417524 780.190476 440.417524 730.35581 184.417524 730.35581C193.29219 697.58781 228.790857 660.041143 290.913524 618.398476 341.430857 584.265143 374.881524 557.641143 391.94819 539.89181 423.350857 505.758476 439.734857 467.529143 439.734857 425.20381 439.734857 382.878476 424.71619 348.062476 396.04419 322.121143 366.689524 296.17981 329.825524 283.209143 284.769524 283.209143L284.769524 283.209143ZM675.857208 283.209143C629.435875 283.209143 591.889208 296.17981 563.217208 322.80381 533.179875 349.42781 515.430541 386.29181 511.334541 433.39581L566.630541 433.39581C570.043875 400.62781 580.966541 375.369143 600.081208 357.61981 618.513208 339.870476 643.771875 331.678476 676.539875 331.678476 707.942541 331.678476 733.201208 339.18781 750.950541 355.57181 767.334541 370.590476 776.209208 391.753143 776.209208 419.05981 776.209208 446.366476 767.334541 467.529143 750.267875 482.54781 733.201208 496.88381 708.625208 504.393143 675.857208 504.393143L638.310541 504.393143 638.310541 548.08381 677.905208 548.08381C712.038541 548.08381 737.979875 555.593143 757.094541 571.977143 776.209208 588.361143 785.766541 610.889143 785.766541 640.24381 785.766541 668.91581 775.526541 692.809143 756.411875 711.92381 735.249208 731.721143 707.259875 741.961143 672.443875 741.961143 641.723875 741.961143 616.465208 733.086476 595.985208 716.702476 572.091875 696.905143 559.121208 667.550476 557.755875 629.321143L501.094541 629.321143C505.190541 683.934476 524.305208 725.577143 559.121208 754.249143 588.475875 777.45981 626.022541 789.74781 672.443875 789.74781 722.961208 789.74781 763.921208 775.41181 795.323875 746.73981 826.043875 718.750476 841.745208 682.569143 841.745208 638.19581 841.745208 609.52381 833.553208 585.630476 817.169208 566.51581 802.150541 547.401143 780.305208 533.74781 751.633208 524.873143 804.881208 507.12381 831.505208 470.25981 831.505208 415.646476 831.505208 374.686476 817.169208 342.601143 789.179875 318.70781 760.507875 294.814476 722.278541 283.209143 675.857208 283.209143L675.857208 283.209143Z" p-id="12267"></path></svg>