<?xml version="1.0" standalone="no"?><!DOCTYPE svg PUBLIC "-//W3C//DTD SVG 1.1//EN" "http://www.w3.org/Graphics/SVG/1.1/DTD/svg11.dtd"><svg t="1553566494822" class="icon" style="" viewBox="0 0 1024 1024" version="1.1" xmlns="http://www.w3.org/2000/svg" p-id="31043" xmlns:xlink="http://www.w3.org/1999/xlink" width="200" height="200"><defs><style type="text/css"></style></defs><path d="M251.07 691.362c0.32 18.013 3.107 34.384 8.35 49.119 5.233 14.735 12.847 27.346 22.839 37.821 9.985 10.484 22.425 18.588 37.33 24.315 14.897 5.725 32.334 8.595 52.311 8.595 16.37 0 31.927-2.455 46.663-7.368 14.736-4.912 27.668-11.865 38.805-20.875 11.128-9.003 19.97-19.97 26.524-32.91 6.546-12.932 9.824-27.582 9.824-43.96 0-22.265-5.487-41.175-16.455-56.732-10.975-15.549-26.279-25.297-45.926-29.226v-0.982c16.7-5.896 28.98-15.304 36.839-28.245 7.859-12.931 11.788-28.074 11.788-45.433 0-15.058-3.116-28.404-9.331-40.032-6.225-11.62-14.49-21.198-24.805-28.735-10.315-7.528-21.942-13.262-34.874-17.191-12.941-3.93-26.117-5.894-39.541-5.894-17.361 0-32.91 2.947-46.664 8.84-13.753 5.895-25.465 14.085-35.12 24.56-9.662 10.484-17.275 22.84-22.839 37.085-5.572 14.244-8.68 29.717-9.332 46.416h55.995c-0.33-8.841 0.653-17.437 2.947-25.787 2.287-8.35 5.81-15.879 10.56-22.594 4.744-6.708 10.723-12.034 17.929-15.963 7.199-3.93 15.718-5.895 25.542-5.895 15.718 0 28.565 4.421 38.559 13.262 9.984 8.842 14.981 20.63 14.981 35.366 0 10.484-2.21 19.326-6.63 26.524-4.42 7.207-10.238 12.855-17.437 16.947-7.207 4.098-15.396 6.961-24.56 8.595a129.288 129.288 0 0 1-27.507 1.965v41.751c11.13-0.322 22.02 0 32.665 0.983 10.637 0.982 20.215 3.522 28.734 7.612 8.511 4.098 15.388 10.07 20.63 17.93 5.234 7.858 7.86 18.503 7.86 31.927 0 19.647-6.31 34.797-18.911 45.433-12.61 10.646-28.244 15.965-46.909 15.965-21.941 0-38.396-6.953-49.364-20.876-10.975-13.914-16.132-31.352-15.472-52.31h-55.999z m297.905 59.68c8.673 17.522 20.79 31.927 36.348 43.225 15.55 11.297 35.612 16.946 60.171 16.946s44.613-5.649 60.17-16.946c15.549-11.298 27.668-25.703 36.349-43.225 8.673-17.514 14.566-36.754 17.682-57.714 3.108-20.952 4.667-41.259 4.667-60.907s-1.558-39.948-4.667-60.909c-3.116-20.952-9.01-40.192-17.682-57.713-8.68-17.514-20.8-31.927-36.348-43.224-15.558-11.298-35.611-16.946-60.17-16.946s-44.622 5.648-60.172 16.946c-15.556 11.297-27.675 25.71-36.348 43.224-8.68 17.521-14.574 36.762-17.683 57.713-3.116 20.96-4.666 41.26-4.666 60.909s1.55 39.955 4.666 60.907c3.108 20.96 9.002 40.2 17.683 57.714z m36.593-169.46c1.964-15.879 5.318-29.878 10.069-41.997 4.744-12.11 11.128-21.688 19.157-28.733 8.02-7.038 18.25-10.56 30.7-10.56 12.11 0 22.263 3.522 30.453 10.56 8.181 7.045 14.65 16.623 19.402 28.733 4.743 12.12 8.104 26.118 10.07 41.997 1.964 15.887 2.946 32.833 2.946 50.839 0 18.013-0.982 35.043-2.947 51.083-1.965 16.049-5.326 30.046-10.07 41.997-4.75 11.957-11.22 21.451-19.401 28.488-8.19 7.046-18.343 10.56-30.454 10.56-12.448 0-22.68-3.515-30.699-10.56-8.029-7.037-14.413-16.531-19.157-28.488-4.751-11.95-8.105-25.948-10.07-41.997-1.964-16.04-2.947-33.07-2.947-51.083 0-18.006 0.983-34.951 2.948-50.84z" p-id="31044"></path><path d="M838.026 126.409H778.58V79.238c0-6.723-5.642-12.254-12.603-12.254h-34.219c-7.118 0-12.602 5.486-12.602 12.254v47.171H303.182V79.238c0-6.723-5.642-12.254-12.602-12.254h-34.22c-7.118 0-12.602 5.486-12.602 12.254v47.171h-59.446c-65.738 0-118.829 53.169-118.829 118.756v594.434c0 65.449 53.201 118.756 118.829 118.756h653.715c65.739 0 118.829-53.169 118.829-118.756V245.165c-0.001-65.449-53.203-118.756-118.83-118.756zM897.43 839.6c0 32.806-26.523 59.332-59.403 59.332H184.311c-32.757 0-59.403-26.652-59.403-59.332V364.108h772.521V839.6z m0-534.917H124.908v-59.518c0-32.806 26.523-59.332 59.403-59.332h59.446v47.172c0 6.723 5.642 12.254 12.602 12.254h34.22c7.118 0 12.602-5.486 12.602-12.254v-47.172h415.973v47.172c0 6.723 5.643 12.254 12.602 12.254h34.22c7.119 0 12.602-5.486 12.602-12.254v-47.172h59.446c32.757 0 59.403 26.652 59.403 59.332v59.518z" p-id="31045"></path></svg>