<?xml version="1.0" standalone="no"?><!DOCTYPE svg PUBLIC "-//W3C//DTD SVG 1.1//EN" "http://www.w3.org/Graphics/SVG/1.1/DTD/svg11.dtd"><svg t="1553565866305" class="icon" style="" viewBox="0 0 1024 1024" version="1.1" xmlns="http://www.w3.org/2000/svg" p-id="6894" xmlns:xlink="http://www.w3.org/1999/xlink" width="200" height="200"><defs><style type="text/css"></style></defs><path d="M138.752 157.184h742.912V302.08H138.752z" fill="#707070" p-id="6895"></path><path d="M862.208 958.464H150.016c-27.136 0-49.152-22.528-49.152-50.176V181.76c0-27.648 22.016-50.176 49.152-50.176h99.84v-13.312c0-29.184 20.992-52.736 47.104-52.736h70.656c26.112 0 47.104 23.552 47.104 52.736v13.312h198.656v-13.312c0-29.184 20.992-52.736 47.104-52.736h70.656c26.112 0 47.104 23.552 47.104 52.736v13.312h82.944c27.136 0 49.152 22.528 49.152 50.176v726.528c0.512 27.648-21.504 50.176-48.128 50.176z m-0.512-777.216H150.528V296.96h711.168V181.248z m0 165.376H150.528v562.176h711.168V346.624z m-587.776 215.04c0-54.784 50.176-99.328 111.616-99.328 61.952 0 111.616 44.544 111.616 99.328 0 29.696-15.36 56.32-38.4 74.24 23.552 18.432 38.4 44.544 38.4 74.24 0 54.784-50.176 99.328-111.616 99.328-61.952 0-111.616-44.544-111.616-99.328h50.176v0.512c0 30.208 27.648 55.296 61.952 55.296 34.304 0 61.952-24.576 61.952-55.296 0-25.088-18.944-46.08-44.544-52.736-5.12 2.048-11.264 3.072-17.408 3.072-20.48 0-37.376-11.264-37.376-25.088s16.896-25.088 37.376-25.088c4.096 0 8.192 0.512 11.776 1.536 2.56 0.512 5.632 0.512 8.704 0.512 24.064-7.68 41.472-27.648 41.472-51.712 0-30.72-27.648-55.296-61.952-55.296-34.304 0-61.952 24.576-61.952 55.296v0.512h-50.176z m323.072-74.752c39.424-5.632 40.96-15.36 49.664-24.576 1.024-4.096 1.024-2.048 0.512-0.512 1.536-1.536 2.048-1.024 1.536 0.512h47.616v347.136h-49.664v-272.896h-74.24v-49.664c21.504-0.512 15.872 1.536 24.576 0z" fill="#8a8a8a" p-id="6896"></path><path d="M138.752 282.624h742.912v81.92H138.752v-81.92z" fill="#8a8a8a" p-id="6897"></path></svg>