<?xml version="1.0" standalone="no"?><!DOCTYPE svg PUBLIC "-//W3C//DTD SVG 1.1//EN" "http://www.w3.org/Graphics/SVG/1.1/DTD/svg11.dtd"><svg t="1553566301752" class="icon" style="" viewBox="0 0 1024 1024" version="1.1" xmlns="http://www.w3.org/2000/svg" p-id="28474" xmlns:xlink="http://www.w3.org/1999/xlink" width="200" height="200"><defs><style type="text/css"></style></defs><path d="M390.252 698.526c0.322 18.012 3.109 34.383 8.35 49.118 5.235 14.735 12.848 27.346 22.84 37.821 9.986 10.484 22.426 18.589 37.33 24.315 14.898 5.725 32.335 8.595 52.312 8.595 16.37 0 31.927-2.455 46.663-7.368 14.736-4.912 27.668-11.865 38.805-20.874 11.128-9.003 19.97-19.97 26.524-32.91 6.546-12.932 9.824-27.583 9.824-43.961 0-22.264-5.487-41.175-16.455-56.731-10.975-15.55-26.279-25.297-45.926-29.227v-0.982c16.7-5.895 28.98-15.304 36.839-28.244 7.859-12.932 11.788-28.075 11.788-45.434 0-15.058-3.116-28.404-9.331-40.032-6.225-11.62-14.49-21.198-24.805-28.735-10.315-7.528-21.942-13.262-34.874-17.191-12.941-3.93-26.117-5.894-39.541-5.894-17.36 0-32.91 2.947-46.663 8.841-13.753 5.894-25.465 14.084-35.12 24.56-9.662 10.483-17.275 22.84-22.84 37.084-5.572 14.244-8.68 29.717-9.332 46.417h55.995c-0.33-8.842 0.653-17.437 2.947-25.787 2.287-8.35 5.81-15.88 10.56-22.595 4.744-6.707 10.723-12.034 17.929-15.963 7.199-3.93 15.717-5.895 25.54-5.895 15.719 0 28.566 4.421 38.56 13.263 9.984 8.842 14.981 20.63 14.981 35.366 0 10.484-2.21 19.325-6.63 26.524-4.42 7.206-10.238 12.855-17.437 16.946-7.207 4.098-15.396 6.962-24.56 8.596a129.344 129.344 0 0 1-27.506 1.965v41.75c11.129-0.32 22.019 0 32.664 0.983 10.637 0.982 20.215 3.522 28.734 7.613 8.511 4.099 15.388 10.07 20.63 17.929 5.233 7.86 7.86 18.504 7.86 31.927 0 19.647-6.31 34.797-18.911 45.433-12.61 10.646-28.244 15.965-46.909 15.965-21.942 0-38.396-6.953-49.363-20.875-10.975-13.915-16.132-31.352-15.472-52.31h-56z" p-id="28475"></path><path d="M838.026 126.409H778.58V79.238c0-6.723-5.642-12.254-12.603-12.254h-34.219c-7.118 0-12.602 5.486-12.602 12.254v47.171H303.182V79.238c0-6.723-5.642-12.254-12.602-12.254h-34.22c-7.118 0-12.602 5.486-12.602 12.254v47.171h-59.446c-65.738 0-118.829 53.169-118.829 118.756v594.434c0 65.449 53.201 118.756 118.829 118.756h653.715c65.739 0 118.829-53.169 118.829-118.756V245.165c-0.001-65.449-53.203-118.756-118.83-118.756zM897.43 839.6c0 32.806-26.523 59.332-59.403 59.332H184.311c-32.757 0-59.403-26.652-59.403-59.332V364.108h772.521V839.6z m0-534.917H124.908v-59.518c0-32.806 26.523-59.332 59.403-59.332h59.446v47.172c0 6.723 5.642 12.254 12.602 12.254h34.22c7.118 0 12.602-5.486 12.602-12.254v-47.172h415.973v47.172c0 6.723 5.643 12.254 12.602 12.254h34.22c7.119 0 12.602-5.486 12.602-12.254v-47.172h59.446c32.757 0 59.403 26.652 59.403 59.332v59.518z" p-id="28476"></path></svg>