<?xml version="1.0" standalone="no"?><!DOCTYPE svg PUBLIC "-//W3C//DTD SVG 1.1//EN" "http://www.w3.org/Graphics/SVG/1.1/DTD/svg11.dtd"><svg t="1553566155980" class="icon" style="" viewBox="0 0 1024 1024" version="1.1" xmlns="http://www.w3.org/2000/svg" p-id="23584" xmlns:xlink="http://www.w3.org/1999/xlink" width="200" height="200"><defs><style type="text/css"></style></defs><path d="M509.774 760.41c-72.58 0-120.888-41.6-123.071-105.973l-0.131-3.855 27.85 0 0.277 3.42c5.587 66.99 56.253 81.063 97.767 81.063 62.452 0 96.835-31.373 96.835-88.354 0-39.52-25.361-85.674-96.835-85.674-44.249 0-75.621 22.029-89.036 40.887l-1.121 1.572-27.094 0 36.45-172.369 188.666 0 0 25.318L453.768 456.445l-23.878 107.85c22.321-18.26 53.445-28.576 87.042-28.576 71.997 0 120.379 44.248 120.379 110.09C637.312 717.574 589.629 760.41 509.774 760.41z" p-id="23585"></path><path d="M65 154.4l0 163.9 0 29.8 0 521.5 894 0L959 348.1l0-29.8L959 154.4 65 154.4zM929.2 839.801 94.8 839.801 94.8 348.1l834.4 0L929.2 839.801zM929.2 318.3 94.8 318.3 94.8 184.2l149 0 0 59.6 38.865 0 0-59.6 458.67 0 0 59.6L780.2 243.8l0-59.6 149 0L929.2 318.3z" p-id="23586"></path></svg>