<?xml version="1.0" standalone="no"?><!DOCTYPE svg PUBLIC "-//W3C//DTD SVG 1.1//EN" "http://www.w3.org/Graphics/SVG/1.1/DTD/svg11.dtd"><svg t="1553565838118" class="icon" style="" viewBox="0 0 1024 1024" version="1.1" xmlns="http://www.w3.org/2000/svg" p-id="6631" xmlns:xlink="http://www.w3.org/1999/xlink" width="200" height="200"><defs><style type="text/css"></style></defs><path d="M51.2 0h921.6a51.2 51.2 0 0 1 51.2 51.2v460.8H0V51.2A51.2 51.2 0 0 1 51.2 0z" fill="#FCFCFC" p-id="6632"></path><path d="M972.8 1024H51.2a51.2 51.2 0 0 1-51.2-51.2V512h1024v460.8a51.2 51.2 0 0 1-51.2 51.2z" fill="#EFEFEF" p-id="6633"></path><path d="M0 452.83328h51.2v102.4H0zM972.8 460.8h51.2v102.4h-51.2z" fill="#7D0B12" p-id="6634"></path><path d="M520.9088 464.04608q36.06528 0 64.32768 28.672 28.672 28.24192 28.672 67.36896 0 39.936-30.42304 69.96992-30.86336 29.57312-71.28064 29.55264-43.008 0-72.58112-29.55264T410.08128 560.128q0-36.08576 29.11232-82.14528l86.49728-129.52576 32.16384 22.1696-73.45152 101.70368 0.8704 0.8704q13.4144-9.15456 35.6352-9.15456z m-70.41024 96.49152q0 25.6512 17.8176 43.45856 17.8176 17.408 43.89888 17.408t43.4688-17.408q17.8176-17.8176 17.8176-43.45856 0-25.20064-18.25792-43.008a58.63424 58.63424 0 0 0-43.008-17.8176q-24.77056 0-43.45856 17.8176-18.2784 17.8176-18.2784 43.008zM395.35616 896.93184a19.89632 19.89632 0 0 1-7.3728 16.13824 28.2112 28.2112 0 0 1-18.16576 5.98016 26.84928 26.84928 0 0 1-16.78336-5.56032 28.35456 28.35456 0 0 1-9.99424-15.17568l9.40032-3.84a24.6784 24.6784 0 0 0 2.67264 6.144 20.02944 20.02944 0 0 0 4.01408 4.75136 17.96096 17.96096 0 0 0 5.0688 3.072 15.59552 15.59552 0 0 0 5.87776 1.1264q6.73792 0 11.008-3.4816a11.264 11.264 0 0 0 4.28032-9.216 11.0592 11.0592 0 0 0-3.5328-8.192q-3.29728-3.30752-12.3904-6.41024-9.216-3.31776-11.43808-4.48512-12.1856-6.20544-12.1856-18.2784a18.65728 18.65728 0 0 1 6.73792-14.42816 24.576 24.576 0 0 1 16.77312-5.98016 25.78432 25.78432 0 0 1 15.17568 4.48512 20.98176 20.98176 0 0 1 8.5504 11.008l-9.216 3.85024a13.57824 13.57824 0 0 0-5.12-7.10656 16.384 16.384 0 0 0-18.97472 0.36864 9.35936 9.35936 0 0 0-3.95264 7.80288 9.05216 9.05216 0 0 0 3.072 6.84032q3.4304 2.88768 14.85824 6.84032 11.64288 3.9424 16.61952 9.66656a20.71552 20.71552 0 0 1 5.0176 14.08zM449.85344 917.34016h-9.40032v-7.2704h-0.43008A17.408 17.408 0 0 1 433.152 916.48a19.77344 19.77344 0 0 1-9.66656 2.56q-9.63584 0-14.80704-5.49888t-5.2224-15.64672V864.9728h9.8304v32.27648q0.31744 12.83072 12.93312 12.82048a12.288 12.288 0 0 0 9.8304-4.75136 17.26464 17.26464 0 0 0 3.97312-11.3664v-28.9792h9.8304zM461.824 864.9728h9.40032v7.2704h0.43008a17.47968 17.47968 0 0 1 6.89152-6.41024 19.79392 19.79392 0 0 1 9.6768-2.57024q9.61536 0 14.7968 5.50912t5.18144 15.65696v32.91136h-9.8304v-32.27648q-0.31744-12.82048-12.92288-12.82048a12.288 12.288 0 0 0-9.84064 4.75136 17.26464 17.26464 0 0 0-3.95264 11.38688v28.95872H461.824zM541.696 919.05024q-10.24 0-17.63328-8.12032a30.52544 30.52544 0 0 1 0-39.54688Q531.39456 863.232 541.696 863.232a22.58944 22.58944 0 0 1 10.52672 2.4576 18.50368 18.50368 0 0 1 7.3216 6.52288h0.43008l-0.43008-7.2704v-24.1152H569.344v76.51328h-9.40032v-7.2704h-0.43008a18.432 18.432 0 0 1-7.3216 6.52288 22.58944 22.58944 0 0 1-10.496 2.4576z m1.60768-8.98048a15.04256 15.04256 0 0 0 11.85792-5.23264q4.8128-5.23264 4.8128-13.68064a19.51744 19.51744 0 0 0-4.8128-13.568 15.11424 15.11424 0 0 0-11.85792-5.34528 15.36 15.36 0 0 0-11.90912 5.3248 19.51744 19.51744 0 0 0-4.8128 13.568q0 8.3456 4.8128 13.57824a15.36 15.36 0 0 0 11.86816 5.35552zM600.64768 863.232q10.9056 0 17.2032 5.82656t6.30784 15.9744v32.27648h-9.41056v-7.2704h-0.41984q-6.144 8.99072-16.25088 8.98048a21.11488 21.11488 0 0 1-14.47936-5.12 16.384 16.384 0 0 1-5.82656-12.77952 15.55456 15.55456 0 0 1 6.144-12.93312q6.144-4.8128 16.384-4.8128 8.7552 0 14.41792 3.20512v-2.24256a11.18208 11.18208 0 0 0-4.096-8.704 13.94688 13.94688 0 0 0-9.51296-3.584 15.06304 15.06304 0 0 0-13.03552 6.94272l-8.66304-5.44768Q586.65984 863.232 600.64768 863.232z m-12.71808 38.05184a7.85408 7.85408 0 0 0 3.25632 6.41024 11.9808 11.9808 0 0 0 7.63904 2.56 15.65696 15.65696 0 0 0 11.06944-4.59776 14.3872 14.3872 0 0 0 4.85376-10.79296q-4.59776-3.62496-12.82048-3.62496a16.65024 16.65024 0 0 0-9.99424 2.87744 8.57088 8.57088 0 0 0-4.00384 7.19872zM681.0112 864.9728l-32.768 75.44832h-10.1888l12.1856-26.38848-21.59616-49.05984h10.69056l15.60576 37.62176h0.2048l15.17568-37.62176z" fill="" p-id="6635"></path></svg>