<?xml version="1.0" standalone="no"?><!DOCTYPE svg PUBLIC "-//W3C//DTD SVG 1.1//EN" "http://www.w3.org/Graphics/SVG/1.1/DTD/svg11.dtd"><svg t="1553566348309" class="icon" style="" viewBox="0 0 1024 1024" version="1.1" xmlns="http://www.w3.org/2000/svg" p-id="29171" xmlns:xlink="http://www.w3.org/1999/xlink" width="200" height="200"><defs><style type="text/css"></style></defs><path d="M408.227 655.793c-11.298 14.736-16.946 32.91-16.946 54.522 0 16.7 3.023 31.765 9.087 45.189 6.055 13.43 14.49 24.804 25.296 34.136s23.653 16.455 38.558 21.367c14.896 4.913 31.021 7.368 48.382 7.368 17.352 0 33.477-2.455 48.38-7.368 14.898-4.912 27.753-12.034 38.56-21.367 10.806-9.332 19.233-20.705 25.296-34.136 6.055-13.424 9.087-28.489 9.087-45.19 0-21.612-5.649-39.785-16.946-54.521-11.297-14.735-26.609-24.56-45.927-29.471v-0.983c15.718-5.894 27.752-14.98 36.102-27.26s12.525-26.77 12.525-43.47c0-29.472-9.255-52.473-27.752-69.012-18.503-16.532-44.943-24.805-79.326-24.805-34.384 0-60.83 8.273-79.328 24.805-18.504 16.54-27.752 39.54-27.752 69.011 0 16.7 4.175 31.19 12.525 43.47s20.384 21.367 36.102 27.261v0.983c-19.323 4.912-34.626 14.735-45.923 29.47z m66.064-137.287C484.767 509.503 497.54 505 512.604 505c15.058 0 27.828 4.504 38.311 13.507 10.476 9.01 15.718 22.027 15.718 39.05 0 16.379-5.08 28.903-15.227 37.576-10.154 8.68-23.086 13.017-38.803 13.017-15.718 0-28.658-4.336-38.804-13.017-10.153-8.673-15.227-21.197-15.227-37.576 0.001-17.023 5.235-30.04 15.72-39.05z m-8.35 147.357c12.441-10.638 27.998-15.964 46.664-15.964 18.664 0 34.214 5.326 46.663 15.964 12.44 10.645 18.665 25.465 18.665 44.452 0 20.307-6.225 36.025-18.665 47.154-12.449 11.135-27.998 16.699-46.663 16.699-18.665 0-34.223-5.565-46.664-16.7-12.449-11.128-18.665-26.846-18.665-47.153 0-18.988 6.216-33.807 18.665-44.452z" p-id="29172"></path><path d="M838.026 126.409H778.58V79.238c0-6.723-5.642-12.254-12.603-12.254h-34.219c-7.118 0-12.602 5.486-12.602 12.254v47.171H303.182V79.238c0-6.723-5.642-12.254-12.602-12.254h-34.22c-7.118 0-12.602 5.486-12.602 12.254v47.171h-59.446c-65.738 0-118.829 53.169-118.829 118.756v594.434c0 65.449 53.201 118.756 118.829 118.756h653.715c65.739 0 118.829-53.169 118.829-118.756V245.165c-0.001-65.449-53.203-118.756-118.83-118.756zM897.43 839.6c0 32.806-26.523 59.332-59.403 59.332H184.311c-32.757 0-59.403-26.652-59.403-59.332V364.108h772.521V839.6z m0-534.917H124.908v-59.518c0-32.806 26.523-59.332 59.403-59.332h59.446v47.172c0 6.723 5.642 12.254 12.602 12.254h34.22c7.118 0 12.602-5.486 12.602-12.254v-47.172h415.973v47.172c0 6.723 5.643 12.254 12.602 12.254h34.22c7.119 0 12.602-5.486 12.602-12.254v-47.172h59.446c32.757 0 59.403 26.652 59.403 59.332v59.518z" p-id="29173"></path></svg>