<?xml version="1.0" standalone="no"?><!DOCTYPE svg PUBLIC "-//W3C//DTD SVG 1.1//EN" "http://www.w3.org/Graphics/SVG/1.1/DTD/svg11.dtd"><svg t="1553566360101" class="icon" style="" viewBox="0 0 1024 1024" version="1.1" xmlns="http://www.w3.org/2000/svg" p-id="29435" xmlns:xlink="http://www.w3.org/1999/xlink" width="200" height="200"><defs><style type="text/css"></style></defs><path d="M422.712 662.424c9.494 9.993 20.876 17.767 34.138 23.331 13.262 5.572 28.074 8.35 44.452 8.35 15.717 0 30.124-3.515 43.224-10.56 13.093-7.037 23.408-17.268 30.945-30.7l0.982 0.983c-0.982 11.466-2.38 23.992-4.175 37.577-1.804 13.592-5.158 26.362-10.07 38.312-4.911 11.957-11.873 21.941-20.875 29.962-9.01 8.028-21.043 12.034-36.101 12.034-14.736 0-26.447-4.336-35.12-13.016-8.68-8.674-13.677-20.055-14.981-34.138h-55.996c0.652 14.084 3.93 26.854 9.824 38.313 5.894 11.465 13.508 21.29 22.84 29.47 9.333 8.19 20.055 14.575 32.173 19.157 12.111 4.583 25.05 6.877 38.804 6.877 24.23 0 44.614-5.402 61.153-16.21 16.531-10.805 29.878-24.804 40.031-41.996 10.147-17.191 17.438-36.264 21.858-57.223 4.42-20.952 6.63-41.751 6.63-62.38 0-24.882-1.803-48.298-5.402-70.24-3.607-21.936-9.908-41.015-18.91-57.224-9.01-16.209-21.367-28.98-37.085-38.312-15.717-9.333-35.695-14-59.925-14-18.665 0-35.365 2.948-50.101 8.842-14.736 5.894-27.184 14.168-37.33 24.805-10.153 10.644-17.852 23.086-23.086 37.33-5.242 14.245-7.859 29.717-7.859 46.416 0 17.683 2.618 33.647 7.859 47.891 5.235 14.247 12.602 26.364 22.103 36.349zM452.43 551.17c2.456-8.51 6.14-16.041 11.052-22.596 4.912-6.546 11.128-11.704 18.665-15.472 7.529-3.76 16.37-5.649 26.523-5.649 10.477 0 19.648 1.965 27.508 5.895 7.859 3.93 14.32 9.087 19.402 15.472 5.072 6.386 8.918 13.838 11.541 22.35 2.618 8.518 3.93 17.36 3.93 26.524 0 9.502-1.312 18.589-3.93 27.261-2.623 8.68-6.469 16.378-11.541 23.087-5.082 6.715-11.543 12.034-19.402 15.963-7.86 3.93-17.031 5.895-27.508 5.895-10.153 0-18.994-2.042-26.523-6.14-7.537-4.09-13.753-9.41-18.665-15.964-4.912-6.546-8.596-14.16-11.052-22.84-2.456-8.672-3.684-17.758-3.684-27.26 0-9.165 1.23-18.007 3.684-26.526z" fill="" p-id="29436"></path><path d="M838.026 126.409H778.58V79.238c0-6.723-5.642-12.254-12.603-12.254h-34.219c-7.118 0-12.602 5.486-12.602 12.254v47.171H303.182V79.238c0-6.723-5.642-12.254-12.602-12.254h-34.22c-7.118 0-12.602 5.486-12.602 12.254v47.171h-59.446c-65.738 0-118.829 53.169-118.829 118.756v594.434c0 65.449 53.201 118.756 118.829 118.756h653.715c65.739 0 118.829-53.169 118.829-118.756V245.165c-0.001-65.449-53.203-118.756-118.83-118.756zM897.43 839.6c0 32.806-26.523 59.332-59.403 59.332H184.311c-32.757 0-59.403-26.652-59.403-59.332V364.108h772.521V839.6z m0-534.917H124.908v-59.518c0-32.806 26.523-59.332 59.403-59.332h59.446v47.172c0 6.723 5.642 12.254 12.602 12.254h34.22c7.118 0 12.602-5.486 12.602-12.254v-47.172h415.973v47.172c0 6.723 5.643 12.254 12.602 12.254h34.22c7.119 0 12.602-5.486 12.602-12.254v-47.172h59.446c32.757 0 59.403 26.652 59.403 59.332v59.518z" fill="" p-id="29437"></path></svg>