<?xml version="1.0" standalone="no"?><!DOCTYPE svg PUBLIC "-//W3C//DTD SVG 1.1//EN" "http://www.w3.org/Graphics/SVG/1.1/DTD/svg11.dtd"><svg t="1553438566192" class="icon" style="" viewBox="0 0 1024 1024" version="1.1" xmlns="http://www.w3.org/2000/svg" p-id="2485" xmlns:xlink="http://www.w3.org/1999/xlink" width="200" height="200"><defs><style type="text/css"></style></defs><path d="M512 512m-414 0a414 414 0 1 0 828 0 414 414 0 1 0-828 0Z" fill="#F0C48A" p-id="2486"></path><path d="M112.8 281.6h394.6v106.8H112.8z" fill="#FD919E" p-id="2487"></path><path d="M514.8 281.6h394.6v106.8H514.8z" fill="#E8677D" p-id="2488"></path><path d="M911.2 400.2H112.8c-6.4 0-11.8-5.2-11.8-11.8v-106.8c0-6.4 5.2-11.8 11.8-11.8h798.2c6.4 0 11.8 5.2 11.8 11.8v106.8c0 6.4-5.2 11.8-11.6 11.8zM124.6 376.6h774.8v-83.2H124.6v83.2z" fill="#4C4372" p-id="2489"></path><path d="M512 1012.2c-173.2 0-313.8-140.4-313.8-313.8V325.4C198.2 152.2 338.8 11.8 512 11.8c173.2 0 313.8 140.4 313.8 313.8v373c0 173.2-140.6 313.6-313.8 313.6z" fill="#A4CFF2" p-id="2490"></path><path d="M471.8 14.2C317.4 34 198.2 165.8 198.2 325.4v373c0 159.6 119.2 291.4 273.4 311.2 154.2-19.8 273.4-151.6 273.4-311.2V325.4C745.2 165.8 626 34 471.8 14.2z" fill="#D3E6F8" p-id="2491"></path><path d="M290.8 281.6h442.4v213.4H290.8z" fill="#FFFFFF" p-id="2492"></path><path d="M351.2 335.2h321.6v106.6H351.2z" fill="#7BABF1" p-id="2493"></path><path d="M512 1024c-179.4 0-325.4-146-325.4-325.4V325.4C186.6 146 332.6 0 512 0s325.4 146 325.4 325.4v373c0 179.6-146 325.6-325.4 325.6z m0-1000.6c-166.6 0-302 135.4-302 302v373c0 166.6 135.4 302 302 302s302-135.4 302-302V325.4c0-166.4-135.4-302-302-302z" fill="#4C4372" p-id="2494"></path><path d="M679 281.6h54.2v213.4h-54.2z" fill="#D3E6F8" p-id="2495"></path><path d="M733.2 506.8H290.8c-6.4 0-11.8-5.2-11.8-11.8V281.6c0-6.4 5.2-11.8 11.8-11.8h442.4c6.4 0 11.8 5.2 11.8 11.8v213.4c0 6.6-5.4 11.8-11.8 11.8z m-430.6-23.4h419v-190H302.6v190z" fill="#4C4372" p-id="2496"></path><path d="M672.8 453.4H351.2c-6.4 0-11.8-5.2-11.8-11.8v-106.6c0-6.4 5.2-11.8 11.8-11.8h321.6c6.4 0 11.8 5.2 11.8 11.8v106.6c-0.2 6.6-5.4 11.8-11.8 11.8zM363 430h298v-83.2h-298V430z" fill="#4C4372" p-id="2497"></path></svg>