<?xml version="1.0" standalone="no"?><!DOCTYPE svg PUBLIC "-//W3C//DTD SVG 1.1//EN" "http://www.w3.org/Graphics/SVG/1.1/DTD/svg11.dtd"><svg t="1553524333967" class="icon" style="" viewBox="0 0 1024 1024" version="1.1" xmlns="http://www.w3.org/2000/svg" p-id="3999" xmlns:xlink="http://www.w3.org/1999/xlink" width="200" height="200"><defs><style type="text/css"></style></defs><path d="M918.4 579.2c-19.2 0-35.2 16-35.2 35.2 0 19.2 16 35.2 35.2 35.2 19.2 0 35.2-16 35.2-35.2 0-22.4-16-35.2-35.2-35.2z m-25.6-137.6c0 19.2 16 35.2 35.2 35.2 19.2 0 35.2-16 35.2-35.2 0-19.2-16-35.2-35.2-35.2-22.4 0-35.2 16-35.2 35.2z m-278.4 441.6c-19.2 0-35.2 16-35.2 35.2 0 19.2 16 35.2 35.2 35.2 19.2 0 35.2-16 35.2-35.2 0-22.4-16-35.2-35.2-35.2z m243.2-166.4c-19.2 0-35.2 16-35.2 35.2 0 19.2 16 35.2 35.2 35.2 19.2 0 35.2-16 35.2-35.2 0-19.2-16-35.2-35.2-35.2z m-105.6 102.4c-19.2 0-35.2 16-35.2 35.2 0 19.2 16 35.2 35.2 35.2 19.2 0 35.2-16 35.2-35.2 0-19.2-16-35.2-35.2-35.2z m-240 76.8c-51.2 0-102.4-9.6-150.4-28.8-44.8-19.2-86.4-48-121.6-83.2-35.2-35.2-64-76.8-83.2-121.6-19.2-48-28.8-96-28.8-150.4s9.6-102.4 28.8-150.4c19.2-44.8 48-86.4 83.2-121.6 35.2-35.2 76.8-64 121.6-83.2 48-19.2 96-28.8 150.4-28.8s102.4 9.6 150.4 28.8c44.8 19.2 86.4 48 121.6 83.2 35.2 35.2 64 76.8 83.2 121.6v3.2l57.6-25.6c-67.2-163.2-227.2-278.4-412.8-278.4-246.4 0-448 201.6-448 448s201.6 448 448 448v-60.8z" fill="#0099FF" p-id="4000"></path><path d="M438.4 460.8h166.4v64h-166.4v-64z m169.6-38.4h-166.4v-60.8h166.4v60.8z m-169.6 140.8h169.6v73.6c0 9.6-3.2 16-12.8 16-16 0-32 0-51.2-3.2l9.6 38.4h54.4c25.6 0 41.6-12.8 41.6-38.4v-323.2h-246.4v201.6c0 57.6-12.8 102.4-41.6 137.6l28.8 28.8c25.6-35.2 41.6-80 48-131.2z" fill="#0099FF" p-id="4001"></path></svg>