<?xml version="1.0" standalone="no"?><!DOCTYPE svg PUBLIC "-//W3C//DTD SVG 1.1//EN" "http://www.w3.org/Graphics/SVG/1.1/DTD/svg11.dtd"><svg t="1554210801256" class="icon" style="" viewBox="0 0 1024 1024" version="1.1" xmlns="http://www.w3.org/2000/svg" p-id="2244" xmlns:xlink="http://www.w3.org/1999/xlink" width="200" height="200"><defs><style type="text/css"></style></defs><path d="M768 682.666667c-12.8 0-21.333333-4.266667-29.866667-12.8-17.066667-17.066667-17.066667-42.666667 0-59.733333l128-128c17.066667-17.066667 42.666667-17.066667 59.733333 0s17.066667 42.666667 0 59.733333l-128 128C789.333333 678.4 780.8 682.666667 768 682.666667z" p-id="2245" fill="#8a8a8a"></path><path d="M896 554.666667c-12.8 0-21.333333-4.266667-29.866667-12.8l-128-128c-17.066667-17.066667-17.066667-42.666667 0-59.733333s42.666667-17.066667 59.733333 0l128 128c17.066667 17.066667 17.066667 42.666667 0 59.733333C917.333333 550.4 908.8 554.666667 896 554.666667z" p-id="2246" fill="#8a8a8a"></path><path d="M85.333333 554.666667c-12.8 0-21.333333-4.266667-29.866667-12.8-17.066667-17.066667-17.066667-42.666667 0-59.733333l128-128c17.066667-17.066667 42.666667-17.066667 59.733333 0s17.066667 42.666667 0 59.733333l-128 128C106.666667 550.4 98.133333 554.666667 85.333333 554.666667z" p-id="2247" fill="#8a8a8a"></path><path d="M213.333333 682.666667c-12.8 0-21.333333-4.266667-29.866667-12.8l-128-128c-17.066667-17.066667-17.066667-42.666667 0-59.733333s42.666667-17.066667 59.733333 0l128 128c17.066667 17.066667 17.066667 42.666667 0 59.733333C234.666667 678.4 226.133333 682.666667 213.333333 682.666667z" p-id="2248" fill="#8a8a8a"></path><path d="M896 554.666667 85.333333 554.666667c-25.6 0-42.666667-17.066667-42.666667-42.666667s17.066667-42.666667 42.666667-42.666667l810.666667 0c25.6 0 42.666667 17.066667 42.666667 42.666667S921.6 554.666667 896 554.666667z" p-id="2249" fill="#8a8a8a"></path><path d="M512 981.333333c-12.8 0-21.333333-4.266667-29.866667-12.8l-128-128c-17.066667-17.066667-17.066667-42.666667 0-59.733333s42.666667-17.066667 59.733333 0l128 128c17.066667 17.066667 17.066667 42.666667 0 59.733333C533.333333 977.066667 524.8 981.333333 512 981.333333z" p-id="2250" fill="#8a8a8a"></path><path d="M512 981.333333c-12.8 0-21.333333-4.266667-29.866667-12.8-17.066667-17.066667-17.066667-42.666667 0-59.733333l128-128c17.066667-17.066667 42.666667-17.066667 59.733333 0s17.066667 42.666667 0 59.733333l-128 128C533.333333 977.066667 524.8 981.333333 512 981.333333z" p-id="2251" fill="#8a8a8a"></path><path d="M640 298.666667c-12.8 0-21.333333-4.266667-29.866667-12.8l-128-128c-17.066667-17.066667-17.066667-42.666667 0-59.733333s42.666667-17.066667 59.733333 0l128 128c17.066667 17.066667 17.066667 42.666667 0 59.733333C661.333333 294.4 652.8 298.666667 640 298.666667z" p-id="2252" fill="#8a8a8a"></path><path d="M384 298.666667C371.2 298.666667 362.666667 294.4 354.133333 285.866667c-17.066667-17.066667-17.066667-42.666667 0-59.733333l128-128c17.066667-17.066667 42.666667-17.066667 59.733333 0s17.066667 42.666667 0 59.733333l-128 128C405.333333 294.4 396.8 298.666667 384 298.666667z" p-id="2253" fill="#8a8a8a"></path><path d="M512 981.333333c-25.6 0-42.666667-17.066667-42.666667-42.666667L469.333333 128c0-25.6 17.066667-42.666667 42.666667-42.666667s42.666667 17.066667 42.666667 42.666667l0 810.666667C554.666667 964.266667 537.6 981.333333 512 981.333333z" p-id="2254" fill="#8a8a8a"></path></svg>