<?xml version="1.0" standalone="no"?><!DOCTYPE svg PUBLIC "-//W3C//DTD SVG 1.1//EN" "http://www.w3.org/Graphics/SVG/1.1/DTD/svg11.dtd"><svg t="1553524574162" class="icon" style="" viewBox="0 0 1024 1024" version="1.1" xmlns="http://www.w3.org/2000/svg" p-id="6281" xmlns:xlink="http://www.w3.org/1999/xlink" width="200" height="200"><defs><style type="text/css"></style></defs><path d="M921.6 204.8c0-28.16-23.04-51.2-51.2-51.2H153.6c-28.16 0-51.2 23.04-51.2 51.2v102.4h819.2V204.8z m-102.4-153.6c0-28.16-23.04-51.2-51.2-51.2H256c-28.16 0-51.2 23.04-51.2 51.2v51.2h614.4V51.2z m153.6 307.2H51.2c-28.16 0-51.2 23.04-51.2 51.2v563.2c0 28.16 23.04 51.2 51.2 51.2h921.6c28.16 0 51.2-23.04 51.2-51.2V409.6c0-28.16-23.04-51.2-51.2-51.2z m-256 358.4c0 28.16-23.04 51.2-51.2 51.2H358.4c-28.16 0-51.2-23.04-51.2-51.2v-102.4h51.2v102.4h307.2v-102.4h51.2v102.4z" p-id="6282"></path></svg>